<svg xmlns="http://www.w3.org/2000/svg" viewBox="0 0 690 600" role="img" aria-labelledby="title desc">
  <title id="title">Square Face Generator preview</title>
  <desc id="desc">A clean orange and green preview screen for the Square Face Generator game.</desc>
  <defs>
    <filter id="shadow" x="-20%" y="-20%" width="140%" height="140%">
      <feDropShadow dx="0" dy="5" stdDeviation="4" flood-color="#7a4a00" flood-opacity=".18"/>
    </filter>
    <style>
      .hand{font-family:"Comic Sans MS","Trebuchet MS",cursive;letter-spacing:2px}
      .small{font-family:"Comic Sans MS","Trebuchet MS",cursive;letter-spacing:1px}
      .tab{fill:#fffdf6;stroke:#08a874;stroke-width:2}
      .btn{fill:#18bf80;stroke:#fffdf6;stroke-width:4}
      .line{stroke:#67ddb0;stroke-width:1.2;opacity:.5}
    </style>
  </defs>

  <rect width="690" height="600" rx="18" fill="#ffaf03"/>
  <rect x="7" y="7" width="676" height="586" rx="16" fill="none" stroke="#2fd59c" stroke-width="5"/>

  <g transform="translate(72 24)" filter="url(#shadow)">
    <rect x="0" y="0" width="220" height="220" rx="8" fill="#35d59a"/>
    <rect x="8" y="8" width="204" height="174" fill="#fffdf7"/>
    <path d="M35 92c6-30 29-30 35 0" fill="none" stroke="#6a390b" stroke-width="5" stroke-linecap="round"/>
    <path d="M151 92c6-30 29-30 35 0" fill="none" stroke="#6a390b" stroke-width="5" stroke-linecap="round"/>
    <circle cx="55" cy="122" r="6" fill="#080808"/>
    <circle cx="167" cy="122" r="6" fill="#080808"/>
    <path d="M105 153c2-7 10-7 14 0" fill="none" stroke="#080808" stroke-width="4" stroke-linecap="round"/>
    <path d="M90 174c12 24 47 24 59 0" fill="none" stroke="#ff9296" stroke-width="5" stroke-linecap="round"/>
    <text x="110" y="211" text-anchor="middle" fill="#fff" class="hand" font-size="28">Image</text>
    <text x="162" y="208" fill="#fff" class="small" font-size="11">(256 x 256)</text>
  </g>

  <g transform="translate(104 286)" filter="url(#shadow)">
    <rect class="btn" x="0" y="0" width="154" height="58" rx="8"/>
    <text x="77" y="39" text-anchor="middle" fill="#fff" class="hand" font-size="32">SAVE</text>
  </g>
  <g transform="translate(112 402)" filter="url(#shadow)">
    <rect class="btn" x="0" y="0" width="138" height="38" rx="7"/>
    <text x="69" y="25" text-anchor="middle" fill="#fff" class="hand" font-size="18">Random</text>
  </g>
  <g transform="translate(112 484)" filter="url(#shadow)">
    <rect class="btn" x="0" y="0" width="138" height="38" rx="7"/>
    <text x="69" y="25" text-anchor="middle" fill="#fff" class="hand" font-size="18">All Reset</text>
  </g>

  <g transform="translate(315 28)">
    <g class="small" font-size="13" fill="#00775d">
      <rect class="tab" x="0" y="0" width="76" height="28" rx="7"/><text x="38" y="19" text-anchor="middle">Skin</text>
      <rect class="tab" x="0" y="38" width="76" height="28" rx="7"/><text x="38" y="57" text-anchor="middle">Bangs</text>
      <rect class="tab" x="0" y="76" width="76" height="28" rx="7"/><text x="38" y="95" text-anchor="middle">Hair</text>
      <rect class="tab" x="0" y="114" width="76" height="28" rx="7"/><text x="38" y="133" text-anchor="middle">Eye</text>
      <rect class="tab" x="0" y="152" width="76" height="28" rx="7"/><text x="38" y="171" text-anchor="middle">Nose</text>
      <rect class="tab" x="0" y="190" width="76" height="28" rx="7"/><text x="38" y="209" text-anchor="middle">Mouth</text>
      <rect class="tab" x="0" y="228" width="76" height="28" rx="7"/><text x="38" y="247" text-anchor="middle">Cheek</text>
      <rect class="tab" x="0" y="266" width="76" height="28" rx="7"/><text x="38" y="285" text-anchor="middle">Glasses</text>
      <rect class="tab" x="0" y="304" width="76" height="28" rx="7"/><text x="38" y="323" text-anchor="middle">Hats</text>
      <rect class="tab" x="0" y="342" width="76" height="28" rx="7"/><text x="38" y="361" text-anchor="middle">Clothes</text>
      <rect class="tab" x="0" y="380" width="76" height="28" rx="7"/><text x="38" y="399" text-anchor="middle">Other</text>
    </g>
  </g>

  <g transform="translate(402 28)" filter="url(#shadow)">
    <rect x="0" y="0" width="236" height="430" rx="10" fill="#08b875"/>
    <text x="118" y="48" text-anchor="middle" fill="#fff" class="hand" font-size="29">Square Face</text>
    <text x="118" y="84" text-anchor="middle" fill="#fff" class="hand" font-size="29">Generator</text>

    <g transform="translate(168 64) rotate(-14)">
      <rect width="54" height="54" fill="#f61717"/>
      <rect x="10" y="12" width="36" height="34" rx="17" fill="#fffdf7"/>
      <path d="M12 20c8-16 28-18 39-5" fill="#6d3105"/>
      <circle cx="22" cy="31" r="2.8" fill="#111"/>
      <circle cx="38" cy="31" r="2.8" fill="#111"/>
      <path d="M28 39c5 5 12 4 15-2" fill="none" stroke="#ff9296" stroke-width="2.4" stroke-linecap="round"/>
    </g>

    <g transform="translate(16 134)">
      <line class="line" x1="0" y1="0" x2="204" y2="0"/>
      <line class="line" x1="0" y1="36" x2="204" y2="36"/>
      <line class="line" x1="0" y1="72" x2="204" y2="72"/>
      <line class="line" x1="0" y1="108" x2="204" y2="108"/>
      <line class="line" x1="0" y1="144" x2="204" y2="144"/>
      <text x="0" y="24" fill="#fff" class="small" font-size="12">Create a cute square face icon.</text>
      <text x="0" y="60" fill="#fff" class="small" font-size="12">Choose parts and colors.</text>
      <text x="0" y="96" fill="#fff" class="small" font-size="12">Press SAVE when complete.</text>
      <text x="0" y="132" fill="#fff" class="small" font-size="12">Your image stays local.</text>
    </g>

    <g transform="translate(56 306)">
      <rect x="0" y="0" width="124" height="58" rx="7" fill="#fffdf7"/>
      <rect x="6" y="6" width="112" height="46" rx="5" fill="#ffc64b" stroke="#ffe196" stroke-width="4"/>
      <text x="62" y="39" text-anchor="middle" fill="#00775d" class="hand" font-size="30">START</text>
    </g>
  </g>

  <g filter="url(#shadow)">
    <rect x="319" y="548" width="126" height="34" rx="7" fill="#fffdf7"/>
    <rect x="324" y="553" width="116" height="24" rx="5" fill="#18bf80"/>
    <text x="382" y="571" text-anchor="middle" fill="#fff" class="hand" font-size="15">Manual</text>
  </g>
  <g filter="url(#shadow)">
    <rect x="468" y="548" width="142" height="34" rx="7" fill="#fffdf7"/>
    <rect x="473" y="553" width="132" height="24" rx="5" fill="#18bf80"/>
    <text x="539" y="571" text-anchor="middle" fill="#fff" class="hand" font-size="12">Use of Graphics</text>
  </g>
</svg>
